<svg xmlns="http://www.w3.org/2000/svg" viewBox="0 0 134.037 103.271" height="103.271" width="134.037" xml:space="preserve"><defs><clipPath id="a" clipPathUnits="userSpaceOnUse"><path d="M0 77.453h100.528V0H0Z"/></clipPath></defs><path fill="currentColor" d="M30.87 17.638h4.4v27.999h-4.4zm-1.638 0h1.479l-2.72 27.999h-1.48zm-7.081 0h1.48l2.72 27.999h-1.48zm-4.519 0h4.361v27.999h-4.361z"/><g clip-path="url(#a)" transform="matrix(1.33333 0 0 -1.33333 0 103.27)" fill="currentColor"><path d="M38.843 64.224v-16.05c0-1.138 1.021-1.949 1.98-1.949s1.98.811 1.98 1.949v16.05h3.3V48.055c0-2.82-2.55-5.01-5.28-5.01s-5.28 2.19-5.28 5.01v16.169Zm28.53-20.999h-3.301v20.999h3.301zm-6.54 20.999 3.12-20.999h-1.14l-3.12 20.999zm-1.26-20.999h-3.3v20.999h3.3zm21.57 1.17v18.659h-2.819v1.17h8.969v-1.17h-2.85V44.395h2.85v-1.17h-8.969v1.17ZM15.384 34.224h9.989v-1.5h-8.369v-8.729h8.009v-1.5h-8.009v-9.27h-1.62Zm24.629-19.95v18.899h-3.66v1.05h8.94v-1.05h-3.66V14.274h3.66v-1.05h-8.94v1.05Z"/></g></svg>
